<mxfile host="Electron" modified="2023-04-03T06:19:31.264Z" agent="Mozilla/5.0 (Windows NT 10.0; Win64; x64) AppleWebKit/537.36 (KHTML, like Gecko) draw.io/21.1.2 Chrome/106.0.5249.199 Electron/21.4.3 Safari/537.36" etag="ijHc3BB3LEayUwZTJXm2" version="21.1.2" type="device">
  <diagram name="Page-1" id="I7Wz6U8QNj9i8dJ8uise">
    <mxGraphModel dx="3319" dy="1451" grid="1" gridSize="10" guides="1" tooltips="1" connect="1" arrows="1" fold="1" page="1" pageScale="1" pageWidth="850" pageHeight="1100" math="0" shadow="0">
      <root>
        <mxCell id="0" />
        <mxCell id="1" parent="0" />
        <mxCell id="ZBAEyytU3UGZkpoOjIba-3" value="" style="edgeStyle=orthogonalEdgeStyle;rounded=0;orthogonalLoop=1;jettySize=auto;html=1;" edge="1" parent="1" source="ZBAEyytU3UGZkpoOjIba-1" target="ZBAEyytU3UGZkpoOjIba-2">
          <mxGeometry relative="1" as="geometry" />
        </mxCell>
        <mxCell id="ZBAEyytU3UGZkpoOjIba-1" value="start" style="strokeWidth=2;html=1;shape=mxgraph.flowchart.start_1;whiteSpace=wrap;" vertex="1" parent="1">
          <mxGeometry x="360" y="90" width="100" height="60" as="geometry" />
        </mxCell>
        <mxCell id="ZBAEyytU3UGZkpoOjIba-5" value="" style="edgeStyle=orthogonalEdgeStyle;rounded=0;orthogonalLoop=1;jettySize=auto;html=1;" edge="1" parent="1" source="ZBAEyytU3UGZkpoOjIba-2" target="ZBAEyytU3UGZkpoOjIba-4">
          <mxGeometry relative="1" as="geometry" />
        </mxCell>
        <mxCell id="ZBAEyytU3UGZkpoOjIba-2" value="data&amp;nbsp;&lt;br&gt;i = 1" style="shape=hexagon;perimeter=hexagonPerimeter2;whiteSpace=wrap;html=1;fixedSize=1;strokeWidth=2;" vertex="1" parent="1">
          <mxGeometry x="350" y="220" width="120" height="80" as="geometry" />
        </mxCell>
        <mxCell id="ZBAEyytU3UGZkpoOjIba-7" value="" style="edgeStyle=orthogonalEdgeStyle;rounded=0;orthogonalLoop=1;jettySize=auto;html=1;" edge="1" parent="1" source="ZBAEyytU3UGZkpoOjIba-4" target="ZBAEyytU3UGZkpoOjIba-6">
          <mxGeometry relative="1" as="geometry" />
        </mxCell>
        <mxCell id="ZBAEyytU3UGZkpoOjIba-20" value="True" style="edgeLabel;html=1;align=center;verticalAlign=middle;resizable=0;points=[];" vertex="1" connectable="0" parent="ZBAEyytU3UGZkpoOjIba-7">
          <mxGeometry x="-0.1963" relative="1" as="geometry">
            <mxPoint as="offset" />
          </mxGeometry>
        </mxCell>
        <mxCell id="ZBAEyytU3UGZkpoOjIba-19" value="" style="edgeStyle=orthogonalEdgeStyle;rounded=0;orthogonalLoop=1;jettySize=auto;html=1;" edge="1" parent="1" source="ZBAEyytU3UGZkpoOjIba-4" target="ZBAEyytU3UGZkpoOjIba-18">
          <mxGeometry relative="1" as="geometry" />
        </mxCell>
        <mxCell id="ZBAEyytU3UGZkpoOjIba-21" value="False" style="edgeLabel;html=1;align=center;verticalAlign=middle;resizable=0;points=[];" vertex="1" connectable="0" parent="ZBAEyytU3UGZkpoOjIba-19">
          <mxGeometry x="0.2708" y="-3" relative="1" as="geometry">
            <mxPoint as="offset" />
          </mxGeometry>
        </mxCell>
        <mxCell id="ZBAEyytU3UGZkpoOjIba-4" value="i&amp;lt;=data.length-1" style="rhombus;whiteSpace=wrap;html=1;strokeWidth=2;" vertex="1" parent="1">
          <mxGeometry x="340" y="380" width="140" height="80" as="geometry" />
        </mxCell>
        <mxCell id="ZBAEyytU3UGZkpoOjIba-9" value="" style="edgeStyle=orthogonalEdgeStyle;rounded=0;orthogonalLoop=1;jettySize=auto;html=1;" edge="1" parent="1" source="ZBAEyytU3UGZkpoOjIba-6" target="ZBAEyytU3UGZkpoOjIba-8">
          <mxGeometry relative="1" as="geometry" />
        </mxCell>
        <mxCell id="ZBAEyytU3UGZkpoOjIba-6" value="int temp = data[i]&lt;br&gt;int j = i-1" style="whiteSpace=wrap;html=1;strokeWidth=2;" vertex="1" parent="1">
          <mxGeometry x="350" y="550" width="120" height="60" as="geometry" />
        </mxCell>
        <mxCell id="ZBAEyytU3UGZkpoOjIba-11" value="" style="edgeStyle=orthogonalEdgeStyle;rounded=0;orthogonalLoop=1;jettySize=auto;html=1;" edge="1" parent="1" source="ZBAEyytU3UGZkpoOjIba-8" target="ZBAEyytU3UGZkpoOjIba-10">
          <mxGeometry relative="1" as="geometry" />
        </mxCell>
        <mxCell id="ZBAEyytU3UGZkpoOjIba-16" value="True" style="edgeLabel;html=1;align=center;verticalAlign=middle;resizable=0;points=[];" vertex="1" connectable="0" parent="ZBAEyytU3UGZkpoOjIba-11">
          <mxGeometry x="-0.1333" y="-2" relative="1" as="geometry">
            <mxPoint as="offset" />
          </mxGeometry>
        </mxCell>
        <mxCell id="ZBAEyytU3UGZkpoOjIba-14" value="" style="edgeStyle=orthogonalEdgeStyle;rounded=0;orthogonalLoop=1;jettySize=auto;html=1;" edge="1" parent="1" source="ZBAEyytU3UGZkpoOjIba-8" target="ZBAEyytU3UGZkpoOjIba-13">
          <mxGeometry relative="1" as="geometry" />
        </mxCell>
        <mxCell id="ZBAEyytU3UGZkpoOjIba-17" value="False" style="edgeLabel;html=1;align=center;verticalAlign=middle;resizable=0;points=[];" vertex="1" connectable="0" parent="ZBAEyytU3UGZkpoOjIba-14">
          <mxGeometry x="-0.2765" relative="1" as="geometry">
            <mxPoint as="offset" />
          </mxGeometry>
        </mxCell>
        <mxCell id="ZBAEyytU3UGZkpoOjIba-8" value="j &amp;gt;=0 &amp;amp;&amp;amp; data [ j ] &amp;gt; temp" style="rhombus;whiteSpace=wrap;html=1;strokeWidth=2;" vertex="1" parent="1">
          <mxGeometry x="310" y="680" width="200" height="80" as="geometry" />
        </mxCell>
        <mxCell id="ZBAEyytU3UGZkpoOjIba-12" style="edgeStyle=orthogonalEdgeStyle;rounded=0;orthogonalLoop=1;jettySize=auto;html=1;entryX=0;entryY=0.5;entryDx=0;entryDy=0;" edge="1" parent="1" source="ZBAEyytU3UGZkpoOjIba-10" target="ZBAEyytU3UGZkpoOjIba-8">
          <mxGeometry relative="1" as="geometry">
            <Array as="points">
              <mxPoint x="260" y="880" />
              <mxPoint x="260" y="720" />
            </Array>
          </mxGeometry>
        </mxCell>
        <mxCell id="ZBAEyytU3UGZkpoOjIba-10" value="data[ j+1 ] = data [ j ]&lt;br&gt;j--" style="whiteSpace=wrap;html=1;strokeWidth=2;" vertex="1" parent="1">
          <mxGeometry x="350" y="850" width="120" height="60" as="geometry" />
        </mxCell>
        <mxCell id="ZBAEyytU3UGZkpoOjIba-15" style="edgeStyle=orthogonalEdgeStyle;rounded=0;orthogonalLoop=1;jettySize=auto;html=1;entryX=1;entryY=0.5;entryDx=0;entryDy=0;" edge="1" parent="1" source="ZBAEyytU3UGZkpoOjIba-13" target="ZBAEyytU3UGZkpoOjIba-4">
          <mxGeometry relative="1" as="geometry">
            <Array as="points">
              <mxPoint x="690" y="420" />
            </Array>
          </mxGeometry>
        </mxCell>
        <mxCell id="ZBAEyytU3UGZkpoOjIba-13" value="data [j+1]&amp;nbsp; = temp&lt;br&gt;i++" style="whiteSpace=wrap;html=1;strokeWidth=2;" vertex="1" parent="1">
          <mxGeometry x="630" y="690" width="120" height="60" as="geometry" />
        </mxCell>
        <mxCell id="ZBAEyytU3UGZkpoOjIba-18" value="end" style="strokeWidth=2;html=1;shape=mxgraph.flowchart.start_1;whiteSpace=wrap;" vertex="1" parent="1">
          <mxGeometry x="160" y="390" width="100" height="60" as="geometry" />
        </mxCell>
        <mxCell id="ZBAEyytU3UGZkpoOjIba-24" value="" style="edgeStyle=orthogonalEdgeStyle;rounded=0;orthogonalLoop=1;jettySize=auto;html=1;" edge="1" parent="1" source="ZBAEyytU3UGZkpoOjIba-22" target="ZBAEyytU3UGZkpoOjIba-23">
          <mxGeometry relative="1" as="geometry" />
        </mxCell>
        <mxCell id="ZBAEyytU3UGZkpoOjIba-22" value="Start" style="strokeWidth=2;html=1;shape=mxgraph.flowchart.start_1;whiteSpace=wrap;" vertex="1" parent="1">
          <mxGeometry x="340" y="1120" width="100" height="60" as="geometry" />
        </mxCell>
        <mxCell id="ZBAEyytU3UGZkpoOjIba-28" value="" style="edgeStyle=orthogonalEdgeStyle;rounded=0;orthogonalLoop=1;jettySize=auto;html=1;" edge="1" parent="1" source="ZBAEyytU3UGZkpoOjIba-23" target="ZBAEyytU3UGZkpoOjIba-27">
          <mxGeometry relative="1" as="geometry" />
        </mxCell>
        <mxCell id="ZBAEyytU3UGZkpoOjIba-23" value="Data&lt;br&gt;int Interval" style="shape=hexagon;perimeter=hexagonPerimeter2;whiteSpace=wrap;html=1;fixedSize=1;strokeWidth=2;" vertex="1" parent="1">
          <mxGeometry x="330" y="1250" width="120" height="80" as="geometry" />
        </mxCell>
        <mxCell id="ZBAEyytU3UGZkpoOjIba-30" value="" style="edgeStyle=orthogonalEdgeStyle;rounded=0;orthogonalLoop=1;jettySize=auto;html=1;" edge="1" parent="1" source="ZBAEyytU3UGZkpoOjIba-27" target="ZBAEyytU3UGZkpoOjIba-29">
          <mxGeometry relative="1" as="geometry" />
        </mxCell>
        <mxCell id="ZBAEyytU3UGZkpoOjIba-27" value="Interval = Data.length/2" style="shape=parallelogram;perimeter=parallelogramPerimeter;whiteSpace=wrap;html=1;fixedSize=1;strokeWidth=2;" vertex="1" parent="1">
          <mxGeometry x="310" y="1420" width="160" height="60" as="geometry" />
        </mxCell>
        <mxCell id="ZBAEyytU3UGZkpoOjIba-32" value="" style="edgeStyle=orthogonalEdgeStyle;rounded=0;orthogonalLoop=1;jettySize=auto;html=1;" edge="1" parent="1" source="ZBAEyytU3UGZkpoOjIba-29" target="ZBAEyytU3UGZkpoOjIba-31">
          <mxGeometry relative="1" as="geometry" />
        </mxCell>
        <mxCell id="ZBAEyytU3UGZkpoOjIba-55" value="True" style="edgeLabel;html=1;align=center;verticalAlign=middle;resizable=0;points=[];" vertex="1" connectable="0" parent="ZBAEyytU3UGZkpoOjIba-32">
          <mxGeometry x="-0.2943" y="-1" relative="1" as="geometry">
            <mxPoint as="offset" />
          </mxGeometry>
        </mxCell>
        <mxCell id="ZBAEyytU3UGZkpoOjIba-53" value="" style="edgeStyle=orthogonalEdgeStyle;rounded=0;orthogonalLoop=1;jettySize=auto;html=1;" edge="1" parent="1" source="ZBAEyytU3UGZkpoOjIba-29" target="ZBAEyytU3UGZkpoOjIba-52">
          <mxGeometry relative="1" as="geometry" />
        </mxCell>
        <mxCell id="ZBAEyytU3UGZkpoOjIba-54" value="False" style="edgeLabel;html=1;align=center;verticalAlign=middle;resizable=0;points=[];" vertex="1" connectable="0" parent="ZBAEyytU3UGZkpoOjIba-53">
          <mxGeometry x="0.1436" y="2" relative="1" as="geometry">
            <mxPoint as="offset" />
          </mxGeometry>
        </mxCell>
        <mxCell id="ZBAEyytU3UGZkpoOjIba-29" value="Interval &amp;gt; 0" style="rhombus;whiteSpace=wrap;html=1;strokeWidth=2;" vertex="1" parent="1">
          <mxGeometry x="350" y="1550" width="80" height="80" as="geometry" />
        </mxCell>
        <mxCell id="ZBAEyytU3UGZkpoOjIba-34" value="" style="edgeStyle=orthogonalEdgeStyle;rounded=0;orthogonalLoop=1;jettySize=auto;html=1;" edge="1" parent="1" source="ZBAEyytU3UGZkpoOjIba-31" target="ZBAEyytU3UGZkpoOjIba-33">
          <mxGeometry relative="1" as="geometry" />
        </mxCell>
        <mxCell id="ZBAEyytU3UGZkpoOjIba-31" value="int i = Interval" style="whiteSpace=wrap;html=1;strokeWidth=2;" vertex="1" parent="1">
          <mxGeometry x="330" y="1720" width="120" height="60" as="geometry" />
        </mxCell>
        <mxCell id="ZBAEyytU3UGZkpoOjIba-36" value="" style="edgeStyle=orthogonalEdgeStyle;rounded=0;orthogonalLoop=1;jettySize=auto;html=1;" edge="1" parent="1" source="ZBAEyytU3UGZkpoOjIba-33" target="ZBAEyytU3UGZkpoOjIba-35">
          <mxGeometry relative="1" as="geometry" />
        </mxCell>
        <mxCell id="ZBAEyytU3UGZkpoOjIba-51" value="True" style="edgeLabel;html=1;align=center;verticalAlign=middle;resizable=0;points=[];" vertex="1" connectable="0" parent="ZBAEyytU3UGZkpoOjIba-36">
          <mxGeometry x="-0.2494" y="1" relative="1" as="geometry">
            <mxPoint as="offset" />
          </mxGeometry>
        </mxCell>
        <mxCell id="ZBAEyytU3UGZkpoOjIba-48" value="" style="edgeStyle=orthogonalEdgeStyle;rounded=0;orthogonalLoop=1;jettySize=auto;html=1;" edge="1" parent="1" source="ZBAEyytU3UGZkpoOjIba-33" target="ZBAEyytU3UGZkpoOjIba-47">
          <mxGeometry relative="1" as="geometry" />
        </mxCell>
        <mxCell id="ZBAEyytU3UGZkpoOjIba-50" value="False" style="edgeLabel;html=1;align=center;verticalAlign=middle;resizable=0;points=[];" vertex="1" connectable="0" parent="ZBAEyytU3UGZkpoOjIba-48">
          <mxGeometry x="-0.3162" y="-4" relative="1" as="geometry">
            <mxPoint as="offset" />
          </mxGeometry>
        </mxCell>
        <mxCell id="ZBAEyytU3UGZkpoOjIba-33" value="i&amp;lt;Data.length" style="rhombus;whiteSpace=wrap;html=1;strokeWidth=2;" vertex="1" parent="1">
          <mxGeometry x="330" y="1850" width="120" height="80" as="geometry" />
        </mxCell>
        <mxCell id="ZBAEyytU3UGZkpoOjIba-38" value="" style="edgeStyle=orthogonalEdgeStyle;rounded=0;orthogonalLoop=1;jettySize=auto;html=1;" edge="1" parent="1" source="ZBAEyytU3UGZkpoOjIba-35" target="ZBAEyytU3UGZkpoOjIba-37">
          <mxGeometry relative="1" as="geometry" />
        </mxCell>
        <mxCell id="ZBAEyytU3UGZkpoOjIba-35" value="int temp = data [ i ]&lt;br&gt;int j = i" style="whiteSpace=wrap;html=1;strokeWidth=2;" vertex="1" parent="1">
          <mxGeometry x="330" y="2020" width="120" height="60" as="geometry" />
        </mxCell>
        <mxCell id="ZBAEyytU3UGZkpoOjIba-40" value="" style="edgeStyle=orthogonalEdgeStyle;rounded=0;orthogonalLoop=1;jettySize=auto;html=1;" edge="1" parent="1" source="ZBAEyytU3UGZkpoOjIba-37" target="ZBAEyytU3UGZkpoOjIba-39">
          <mxGeometry relative="1" as="geometry" />
        </mxCell>
        <mxCell id="ZBAEyytU3UGZkpoOjIba-56" value="True" style="edgeLabel;html=1;align=center;verticalAlign=middle;resizable=0;points=[];" vertex="1" connectable="0" parent="ZBAEyytU3UGZkpoOjIba-40">
          <mxGeometry x="-0.2509" y="-1" relative="1" as="geometry">
            <mxPoint as="offset" />
          </mxGeometry>
        </mxCell>
        <mxCell id="ZBAEyytU3UGZkpoOjIba-45" value="" style="edgeStyle=orthogonalEdgeStyle;rounded=0;orthogonalLoop=1;jettySize=auto;html=1;" edge="1" parent="1" source="ZBAEyytU3UGZkpoOjIba-37" target="ZBAEyytU3UGZkpoOjIba-44">
          <mxGeometry relative="1" as="geometry" />
        </mxCell>
        <mxCell id="ZBAEyytU3UGZkpoOjIba-57" value="False" style="edgeLabel;html=1;align=center;verticalAlign=middle;resizable=0;points=[];" vertex="1" connectable="0" parent="ZBAEyytU3UGZkpoOjIba-45">
          <mxGeometry x="0.1405" relative="1" as="geometry">
            <mxPoint as="offset" />
          </mxGeometry>
        </mxCell>
        <mxCell id="ZBAEyytU3UGZkpoOjIba-37" value="j &amp;gt;=Interval &amp;amp;&amp;amp; data[j-Interval ] &amp;gt; temp" style="rhombus;whiteSpace=wrap;html=1;strokeWidth=2;" vertex="1" parent="1">
          <mxGeometry x="250" y="2150" width="280" height="80" as="geometry" />
        </mxCell>
        <mxCell id="ZBAEyytU3UGZkpoOjIba-43" style="edgeStyle=orthogonalEdgeStyle;rounded=0;orthogonalLoop=1;jettySize=auto;html=1;entryX=1;entryY=0.5;entryDx=0;entryDy=0;" edge="1" parent="1" source="ZBAEyytU3UGZkpoOjIba-39" target="ZBAEyytU3UGZkpoOjIba-37">
          <mxGeometry relative="1" as="geometry">
            <Array as="points">
              <mxPoint x="580" y="2350" />
              <mxPoint x="580" y="2190" />
            </Array>
          </mxGeometry>
        </mxCell>
        <mxCell id="ZBAEyytU3UGZkpoOjIba-39" value="data[ j ] = data [j-Interval]&lt;br&gt;j -= Interval" style="whiteSpace=wrap;html=1;strokeWidth=2;" vertex="1" parent="1">
          <mxGeometry x="290" y="2320" width="200" height="60" as="geometry" />
        </mxCell>
        <mxCell id="ZBAEyytU3UGZkpoOjIba-46" style="edgeStyle=orthogonalEdgeStyle;rounded=0;orthogonalLoop=1;jettySize=auto;html=1;entryX=0;entryY=0.5;entryDx=0;entryDy=0;" edge="1" parent="1" source="ZBAEyytU3UGZkpoOjIba-44" target="ZBAEyytU3UGZkpoOjIba-33">
          <mxGeometry relative="1" as="geometry">
            <Array as="points">
              <mxPoint x="30" y="1890" />
            </Array>
          </mxGeometry>
        </mxCell>
        <mxCell id="ZBAEyytU3UGZkpoOjIba-44" value="Data[ j ] = temp&lt;br&gt;i += 1" style="whiteSpace=wrap;html=1;strokeWidth=2;" vertex="1" parent="1">
          <mxGeometry x="-30" y="2160" width="120" height="60" as="geometry" />
        </mxCell>
        <mxCell id="ZBAEyytU3UGZkpoOjIba-49" style="edgeStyle=orthogonalEdgeStyle;rounded=0;orthogonalLoop=1;jettySize=auto;html=1;entryX=1;entryY=0.5;entryDx=0;entryDy=0;" edge="1" parent="1" source="ZBAEyytU3UGZkpoOjIba-47" target="ZBAEyytU3UGZkpoOjIba-29">
          <mxGeometry relative="1" as="geometry">
            <Array as="points">
              <mxPoint x="640" y="1590" />
            </Array>
          </mxGeometry>
        </mxCell>
        <mxCell id="ZBAEyytU3UGZkpoOjIba-47" value="Interval /= 2" style="whiteSpace=wrap;html=1;strokeWidth=2;" vertex="1" parent="1">
          <mxGeometry x="580" y="1860" width="120" height="60" as="geometry" />
        </mxCell>
        <mxCell id="ZBAEyytU3UGZkpoOjIba-52" value="end" style="strokeWidth=2;html=1;shape=mxgraph.flowchart.start_1;whiteSpace=wrap;" vertex="1" parent="1">
          <mxGeometry x="180" y="1560" width="100" height="60" as="geometry" />
        </mxCell>
      </root>
    </mxGraphModel>
  </diagram>
</mxfile>
